<?xml version="1.0" encoding="UTF-8"?>
<svg version="1.1" xmlns="http://www.w3.org/2000/svg" width="100" height="100">
<path d="M0 0 C5.41870274 2.83030455 10.06002829 7.53164736 12 13.3515625 C13.67522296 37.16366025 5.71051255 54.83833242 -9 73.3515625 C-15.77547734 72.90742382 -21.14365612 70.24831956 -27.1875 67.2890625 C-28.21109619 66.79172607 -29.23469238 66.29438965 -30.28930664 65.78198242 C-42.75943826 59.62277865 -57.04893923 52.43775915 -62.3125 38.69140625 C-64.79331338 30.24818344 -64.26900356 22.55234998 -61 14.3515625 C-57.11271703 7.8368639 -51.27483518 3.44524849 -44 1.3515625 C-35.38992293 0.32308606 -28.34005639 0.55805629 -21 5.3515625 C-19.6078125 4.145 -19.6078125 4.145 -18.1875 2.9140625 C-13.16599107 -1.43791191 -6.28353796 -2.03724082 0 0 Z M-13.3125 3.8515625 C-15.57694423 7.20629469 -16.71991314 10.51130192 -18 14.3515625 C-18.721875 13.6090625 -19.44375 12.8665625 -20.1875 12.1015625 C-25.63398553 6.77610998 -29.10806185 4.21785591 -36.8125 4.1015625 C-42.62995029 4.17856846 -46.40581164 4.75737414 -50.65234375 9.00390625 C-55.84383267 14.78172803 -56.36821504 19.22614858 -56.265625 26.9375 C-55.56228106 35.97753833 -51.2226543 42.89426743 -44.61865234 48.99365234 C-38.55689703 54.07894391 -31.70206698 58.17877636 -25 62.3515625 C-24.36433105 62.75665039 -23.72866211 63.16173828 -23.07373047 63.57910156 C-17.4537975 67.75983102 -17.4537975 67.75983102 -10.99902344 69.09521484 C-7.57017256 67.81965552 -6.03017851 64.6260883 -4.125 61.6640625 C-3.68736328 60.99431396 -3.24972656 60.32456543 -2.79882812 59.63452148 C6.02254021 45.75910848 11.06998274 30.86476497 9 14.3515625 C7.46998971 9.56344995 4.81858471 6.62772723 0.6875 3.8515625 C-4.24219123 1.84626437 -8.54081576 0.75641597 -13.3125 3.8515625 Z " fill="#000000" transform="translate(75,15.6484375)"/>
</svg>
