<svg id="Layer_1" data-name="Layer 1" xmlns="http://www.w3.org/2000/svg" viewBox="0 0 433.26 97.04">
  <path fill="#4a494a" d="M125,246.84h.58v9.1H125q-7,0-8.91,4.89a13.47,13.47,0,0,0-1,4.72v4.18h10.16v9.11H115.06v36.6H102v-36.6h-.8v-9.11h.8v-4.18a19.6,19.6,0,0,1,6.41-14.8,20.19,20.19,0,0,1,5.19-2.89C115.75,247.18,122.21,246.84,125,246.84Z" transform="translate(-101.16 -246.65)"/>
  <path fill="#4a494a" d="M131.35,246.84h11.11v68.6H131.35Z" transform="translate(-101.16 -246.65)"/>
  <path fill="#4a494a" d="M151.62,256.47q4,0,5.34,4.38l.14,1.24c0,2.57-1.38,4.37-4.14,5.38l-1.1.1h-.47q-3.76,0-5.25-4.15l-.14-1.09V262c0-2.54,1.34-4.29,4-5.24ZM147,269.73h11.1v45.71H147Z" transform="translate(-101.16 -246.65)"/>
  <path fill="#4a494a" d="M199.25,310.87h-.12a22.59,22.59,0,0,1-13.59,4.49h-.27q-11.18,0-18.71-9.88a22.69,22.69,0,0,1-3.91-12.11v-1.72q0-7.77,6.09-14.81a22.77,22.77,0,0,1,16.72-7.18c4.95,0,13.79,4.49,13.79,4.49Zm-26-18.85v1q0,5.11,4.73,9.19a12.15,12.15,0,0,0,7.49,2.58q7.23,0,11.2-7.21a15.2,15.2,0,0,0,1.08-5.08,12.31,12.31,0,0,0-12.28-12.21q-6.76,0-10.79,6.4A12.55,12.55,0,0,0,173.25,292Z" transform="translate(-101.16 -246.65)"/>
  <path fill="#4a494a" d="M213.9,246.84H225v27.39h.12c4.11-3,7.73-4.5,12.86-4.5q10.35,0,17.93,8.79a23.13,23.13,0,0,1,4.69,13.64v23.28H249.5v-23c0-4.69-.16-7.52-4.48-10.49a13.63,13.63,0,0,0-7.43-2.1c-4.29,0-6,.94-9,4.82a14.06,14.06,0,0,0-2.62,8.67l-1,22.11H213.9Z" transform="translate(-101.16 -246.65)"/>
  <path fill="#4a494a" d="M270.87,246.65H282v23.08h7.81v9.11H282v36.6H270.87v-36.6H263v-9.11h7.85Z" transform="translate(-101.16 -246.65)"/>
  <path fill="#4a494a" d="M309.79,269.73h26.4v10.11h-26.4c-2.48,0-4,.4-4.61,1.21-.86,1.22-1.29,1.42-1.29,2.59a4,4,0,0,0,2.81,4.1l1.68.31h12.23q11.08,0,14.49,8.48a16.73,16.73,0,0,1,.9,5.31A12.68,12.68,0,0,1,328.5,314a13.64,13.64,0,0,1-5.71,1.41H295v-10.1h27.31a4.23,4.23,0,0,0,4.29-2.7l.32-.91c0-3.08-1.86-4.61-5.59-4.61h-13.2a14,14,0,0,1-9.61-4,13.38,13.38,0,0,1-3.71-9.61,14.86,14.86,0,0,1,3.59-9.57Q301.94,269.74,309.79,269.73Z" transform="translate(-101.16 -246.65)"/>
  <path fill="#ef4223" d="M349,269.73h10.11v2.39h.11A18.3,18.3,0,0,1,382,275.94a18.33,18.33,0,0,1,27.22-.31A18.45,18.45,0,0,1,414,288.25v27.19h-10.1V288.25c0-4.22-1.13-7.23-5.37-9a13.7,13.7,0,0,0-2.81-.39q-5.6,0-8.52,5.7a13,13,0,0,0-.7,4.61v26.29h-10.1v-27.7c0-3.33-.76-6-4.28-8.12a12.07,12.07,0,0,0-4-.78q-5,0-8.2,5.31a11.09,11.09,0,0,0-.78,3.67v27.62H349Z" transform="translate(-101.16 -246.65)"/>
  <path fill="#ef4223" d="M443.59,269.73a22.57,22.57,0,0,1,16,6.72,22.92,22.92,0,0,1,6.68,16.17q0,9.54-7.39,16.8a22.6,22.6,0,0,1-15.39,6h-.19q-10.2,0-17.42-8.09a22.83,22.83,0,0,1-1.29-27.81Q431.95,269.73,443.59,269.73Zm-.32,22.85h0a.15.15,0,0,0,.06.11.14.14,0,0,0,.09,0,.14.14,0,0,0,.11-.06.16.16,0,0,0,0-.08.19.19,0,0,0-.07-.13l-.08,0a.15.15,0,0,0-.11.07A.11.11,0,0,0,443.27,292.58Z" transform="translate(-101.16 -246.65)"/>
  <path fill="#ef4223" d="M473,269.73h11.1v49.69A25,25,0,0,1,477.18,337c-4.25,3.93-11.55,5.9-17.9,5.9v-9.1q9.77,0,12.81-8.91a20.51,20.51,0,0,0,.9-5.59Zm4.61-12.26q3.24,0,4.37,3.59l.12,1q0,3.17-3.4,4.41l-.9.08h-.39q-3.09,0-4.29-3.4l-.12-.9V262c0-2.08,1.09-3.52,3.28-4.3Z" transform="translate(-101.16 -246.65)"/>
  <path fill="#4a494a" d="M198.49,270.48h11.1v49.69a25,25,0,0,1-6.91,17.62c-4.25,3.93-11.55,5.9-17.9,5.9v-9.1q9.76,0,12.81-8.91a20.51,20.51,0,0,0,.9-5.59Z" transform="translate(-101.16 -246.65)"/>
  <path fill="#ef4223" d="M511.72,269.73a22.57,22.57,0,0,1,16,6.72,22.92,22.92,0,0,1,6.68,16.17q0,9.54-7.39,16.8a22.6,22.6,0,0,1-15.39,6h-.19q-10.2,0-17.42-8.09a22.86,22.86,0,0,1-1.29-27.81Q500.08,269.73,511.72,269.73Zm-12.5,22.19v.52l-.1.11.1.07v.56q0,5,4.75,9.25a13,13,0,0,0,7.56,2.53,12.25,12.25,0,0,0,10.09-5.2,12.59,12.59,0,0,0,2.35-7.14c0-4.27-2-7.8-5.94-10.62a13.63,13.63,0,0,0-6.68-1.79q-6.15,0-10.26,5.77A11.75,11.75,0,0,0,499.22,291.92Z" transform="translate(-101.16 -246.65)"/>
  <path fill="#ffffff" d="M442.58,291.45,438.72,290l.46-.93,4.28.35s2.18-4.09,2.89-5.39L444.94,283l-7.28-2.85.47-.56,4.53.25.69-1.13s0-.26.57,0l.94.56-.16.66s3.79.3,4.16.39c0,0,2.74-5.08,5.19-5.21,0,0,1.36.07.22,2.95L452,281.85l1.72,4.11.31-.3a.35.35,0,0,1,.51-.11l.89.64s.29.16-.05.57l-.75,1.08,2.09,4-.53.67-5.51-5.57-1.55-1.19-3.81,5,2,3.72-.63,1-2.87-3.1a10.22,10.22,0,0,1-2,1.67A15.83,15.83,0,0,1,442.58,291.45Z" transform="translate(-101.16 -246.65)"/>
  <path fill="#ffffff" d="M442,290.92l2,1.16s-4,14.59-16.92,17.42c0,0-5.7-4.79-6.75-14.75C420.33,294.75,431.42,303.92,442,290.92Z" transform="translate(-101.16 -246.65)"/>
</svg>