<?xml version="1.0" encoding="iso-8859-1"?>
<!-- Generator: Adobe Illustrator 18.0.0, SVG Export Plug-In . SVG Version: 6.00 Build 0)  -->
<!DOCTYPE svg PUBLIC "-//W3C//DTD SVG 1.1//EN" "http://www.w3.org/Graphics/SVG/1.1/DTD/svg11.dtd">
<!-- License: CC0. Made by SVG Repo: https://www.svgrepo.com/svg/129805/plane-facing-right -->
<svg version="1.1" id="Capa_1" xmlns="http://www.w3.org/2000/svg" xmlns:xlink="http://www.w3.org/1999/xlink" x="0px" y="0px"
	 viewBox="0 0 484.08 484.08" style="enable-background:new 0 0 484.08 484.08;" xml:space="preserve">
<g>
	<path d="M447.526,236.925c-5.29-20.292-23.921-35.027-45.306-35.027H121.147l-75.469-63.993c-1.842-1.697-4.211-2.628-6.708-2.628
		H9.88c-3.146,0-6.131,1.517-7.978,4.048c-1.861,2.543-2.395,5.854-1.428,8.855c0.011,0.032,0.021,0.066,0.033,0.099l19.909,58.773
		c-0.065,0.24-0.123,0.484-0.163,0.734l-8.684,54.017c-0.497,3.091,1.119,6.137,3.957,7.457l127.844,59.511
		c0.925,0.432,1.934,0.654,2.954,0.654h44.42v0.379c0,10.477,8.523,19,19,19H255.2c10.477,0,19-8.523,19-19v-0.379h163.065
		c25.814,0,46.814-21.002,46.814-46.816C484.08,260.43,468.694,241.629,447.526,236.925z M15.626,149.276h21.817l54.853,46.513
		l-65.106-12.376L15.626,149.276z M162.351,286.474c-1.578,0-2.861-1.283-2.861-2.861c0-1.578,1.284-2.861,2.861-2.861h154.071
		c1.578,0,2.861,1.283,2.861,2.861c0,1.578-1.284,2.861-2.861,2.861H162.351z M437.266,315.425H274.2v-14.951h42.222
		c9.297,0,16.861-7.563,16.861-16.861c0-9.298-7.564-16.861-16.861-16.861H162.351c-9.297,0-16.861,7.564-16.861,16.861
		c0,9.298,7.564,16.861,16.861,16.861h28.394v14.951h-42.871L26.231,258.801l6.897-42.903H402.22
		c10.855,0,20.691,5.418,26.703,13.804h-32.531c-5.574,0-10.109,4.536-10.109,10.112c0,5.575,4.535,10.111,10.109,10.111h42.005
		c0.462,0,2.089,0.029,2.47,0.07c16.654,1.814,29.213,15.835,29.213,32.613C470.08,300.703,455.36,315.425,437.266,315.425z"/>
	<path d="M354.125,229.701c-5.575,0-10.11,4.536-10.11,10.112c0,5.575,4.536,10.111,10.11,10.111c5.575,0,10.11-4.536,10.11-10.111
		C364.236,234.237,359.7,229.701,354.125,229.701z"/>
	<path d="M315.164,229.701c-5.575,0-10.11,4.536-10.11,10.112c0,5.575,4.536,10.111,10.11,10.111c5.575,0,10.11-4.536,10.11-10.111
		C325.275,234.237,320.739,229.701,315.164,229.701z"/>
	<path d="M276.205,229.701c-5.575,0-10.111,4.536-10.111,10.112c0,5.575,4.536,10.111,10.111,10.111
		c5.574,0,10.109-4.536,10.109-10.111C286.315,234.237,281.78,229.701,276.205,229.701z"/>
	<path d="M198.282,229.702c-5.575,0-10.11,4.536-10.11,10.111s4.535,10.111,10.11,10.111c5.575,0,10.11-4.536,10.11-10.111
		S203.857,229.702,198.282,229.702z"/>
	<path d="M237.243,229.701c-5.575,0-10.11,4.536-10.11,10.112c0,5.575,4.536,10.111,10.11,10.111
		c5.574,0,10.109-4.536,10.109-10.111C247.353,234.237,242.818,229.701,237.243,229.701z"/>
	<path d="M120.361,229.702c-5.575,0-10.11,4.536-10.11,10.111s4.535,10.111,10.11,10.111s10.11-4.536,10.11-10.111
		S125.936,229.702,120.361,229.702z"/>
	<path d="M159.322,229.701c-5.575,0-10.11,4.536-10.11,10.112c0,5.575,4.536,10.111,10.11,10.111
		c5.574,0,10.109-4.536,10.109-10.111C169.431,234.237,164.896,229.701,159.322,229.701z"/>
</g>
</svg>
